HIERARCHY
ROOT root
{
	OFFSET 0.000000 0.000000 0.000000
	CHANNELS 6 Xposition Yposition Zposition Zrotation Yrotation Xrotation
	JOINT lhip
	{
		OFFSET 0.058581 -0.082280 -0.017664
		CHANNELS 3 Zrotation Yrotation Xrotation
		JOINT lknee
		{
			OFFSET 0.043451 -0.386469 0.008037
			CHANNELS 3 Zrotation Yrotation Xrotation
			JOINT lankle
			{
				OFFSET -0.014790 -0.426874 -0.037428
				CHANNELS 3 Zrotation Yrotation Xrotation
				JOINT ltoe
				{
					OFFSET 0.041054 -0.060286 0.122042
					CHANNELS 3 Zrotation Yrotation Xrotation
					End Site
					{
						OFFSET 0.000000 0.000000 0.000000
					}
				}
			}
		}
	}
	JOINT rhip
	{
		OFFSET -0.060310 -0.090513 -0.013543
		CHANNELS 3 Zrotation Yrotation Xrotation
		JOINT rknee
		{
			OFFSET -0.043257 -0.383688 -0.004843
			CHANNELS 3 Zrotation Yrotation Xrotation
			JOINT rankle
			{
				OFFSET 0.019056 -0.420046 -0.034562
				CHANNELS 3 Zrotation Yrotation Xrotation
				JOINT rtoe
				{
					OFFSET -0.034840 -0.062106 0.130323
					CHANNELS 3 Zrotation Yrotation Xrotation
					End Site
					{
						OFFSET 0.000000 0.000000 0.000000
					}
				}
			}
		}
	}
	JOINT lowerback
	{
		OFFSET 0.004439 0.124404 -0.038385
		CHANNELS 3 Zrotation Yrotation Xrotation
		JOINT upperback
		{
			OFFSET 0.004488 0.137956 0.026820
			CHANNELS 3 Zrotation Yrotation Xrotation
			JOINT chest
			{
				OFFSET -0.002265 0.056032 0.002855
				CHANNELS 3 Zrotation Yrotation Xrotation
				JOINT lowerneck
				{
					OFFSET -0.013390 0.211636 -0.033468
					CHANNELS 3 Zrotation Yrotation Xrotation
					JOINT upperneck
					{
						OFFSET 0.010113 0.088937 0.050410
						CHANNELS 3 Zrotation Yrotation Xrotation
						End Site
						{
							OFFSET 0.000000 0.000000 0.000000
						}
					}
				}
				JOINT lclavicle
				{
					OFFSET 0.071702 0.114000 -0.018898
					CHANNELS 3 Zrotation Yrotation Xrotation
					JOINT lshoulder
					{
						OFFSET 0.122921 0.045205 -0.019046
						CHANNELS 3 Zrotation Yrotation Xrotation
						JOINT lelbow
						{
							OFFSET 0.255332 -0.015649 -0.022946
							CHANNELS 3 Zrotation Yrotation Xrotation
							JOINT lwrist
							{
								OFFSET 0.265709 0.012698 -0.007375
								CHANNELS 3 Zrotation Yrotation Xrotation
								End Site
								{
									OFFSET 0.000000 0.000000 0.000000
								}
							}
						}
					}
				}
				JOINT rclavicle
				{
					OFFSET -0.082954 0.112472 -0.023707
					CHANNELS 3 Zrotation Yrotation Xrotation
					JOINT rshoulder
					{
						OFFSET -0.113228 0.046853 -0.008472
						CHANNELS 3 Zrotation Yrotation Xrotation
						JOINT relbow
						{
							OFFSET -0.260127 -0.014369 -0.031269
							CHANNELS 3 Zrotation Yrotation Xrotation
							JOINT rwrist
							{
								OFFSET -0.269108 0.006794 -0.006027
								CHANNELS 3 Zrotation Yrotation Xrotation
								End Site
								{
									OFFSET 0.000000 0.000000 0.000000
								}
							}
						}
					}
				}
			}
		}
	}
}
MOTION
Frames: 11
Frame Time: 0.033333
1.564981 0.344777 0.980690 -87.959403 -3.141497 71.743390 9.816368 -3.235681 -28.113827 -3.782795 12.655705 100.961586 -5.810677 5.146052 5.026574 0.000000 -0.000000 0.000000 2.085766 -4.034976 3.943696 -1.107664 -1.401044 29.020121 -4.122730 -7.418969 -20.119842 0.000000 -0.000000 0.000000 -1.701579 9.644395 22.551616 1.290261 0.752946 -5.493866 -1.244589 3.504736 0.264411 7.232590 0.181449 -7.210242 0.028492 -15.881963 14.206501 -19.231455 8.125017 -0.828100 -57.442805 2.081512 6.928080 1.766669 -31.928140 27.030883 -6.415416 1.949646 7.971327 26.015070 -1.278177 -3.503670 56.936494 3.321035 12.433567 -9.862922 35.942842 13.525558 -14.742037 -4.849758 1.619755 
1.544321 0.342968 0.987658 -89.432583 -4.446862 70.594086 11.924911 -2.431902 -37.379509 -2.802158 15.416587 105.805541 -5.257699 4.381397 5.086066 0.000000 -0.000000 0.000000 0.432408 -5.597136 7.560983 -1.257439 1.194864 26.930884 -4.075795 -6.633406 -20.309659 0.000000 -0.000000 0.000000 -1.311573 11.999604 24.509349 0.369248 1.426477 -7.051855 -1.746820 4.672020 1.394861 7.078657 -0.225156 -8.631812 -0.114244 -17.340174 16.631255 -19.040076 8.864027 -1.739965 -56.083692 3.166038 6.181335 1.101289 -33.138885 28.080648 -5.144981 1.028227 7.330239 25.515199 -0.349757 -3.678868 55.831569 5.883884 11.722166 -10.438148 37.600722 12.797115 -15.263079 -4.016919 1.710381 
1.523188 0.340813 0.992397 -90.768729 -5.256391 69.473114 14.172892 -1.167963 -45.821940 -2.167463 17.320327 108.803540 -5.484101 2.592321 4.531179 0.000000 -0.000000 0.000000 -0.978745 -7.129088 11.082903 -1.532495 3.640740 25.011866 -4.069319 -5.856330 -20.624440 0.000000 -0.000000 0.000000 -0.746847 14.411229 25.939547 -0.182425 2.389400 -7.299382 -1.865372 5.335176 1.808693 7.163126 -1.093903 -9.688640 -0.202688 -18.617484 17.510741 -18.679891 9.463177 -2.406298 -55.746821 3.790904 5.487274 0.731848 -33.814659 29.186159 -4.941936 0.717530 6.786935 24.320958 0.027611 -4.352928 54.726852 7.683174 10.899943 -11.317730 39.694470 12.288053 -14.778374 -3.298312 2.037378 
1.501318 0.337954 0.996760 -92.015977 -6.459625 68.444699 15.749042 0.096176 -52.633137 -1.221330 19.164758 109.951398 -5.953602 0.889024 3.497112 0.000000 -0.000000 0.000000 -2.889918 -8.059467 14.371119 -1.917212 5.908284 23.387132 -3.856426 -5.073470 -21.171355 0.000000 -0.000000 0.000000 -0.573201 16.497372 26.939837 -0.671135 2.683713 -7.145634 -2.145601 6.163439 1.863478 7.064740 -1.311241 -10.141016 -0.460915 -20.076051 18.446893 -18.286538 10.000701 -2.981875 -55.391055 4.842271 4.774304 0.735929 -34.157510 29.632152 -5.053417 0.637954 6.605539 23.866057 0.698251 -4.560146 53.383583 9.772943 9.951687 -12.373624 41.435132 10.391422 -15.162432 -3.403674 1.634711 
1.478736 0.334769 1.000258 -92.914282 -7.524557 67.948584 16.991453 1.109927 -58.265616 -0.179594 20.982798 109.672131 -5.887112 0.147876 3.410924 0.000000 -0.000000 0.000000 -4.572340 -8.528092 17.130188 -2.303037 7.782792 21.793479 -3.755706 -4.735926 -21.717587 0.000000 -0.000000 0.000000 -0.702943 17.990480 27.448254 -1.111322 2.730690 -7.573779 -2.375796 6.736901 1.999035 7.094417 -1.341771 -10.312624 -0.606282 -20.811855 19.542057 -18.058212 11.007012 -3.448860 -54.732395 5.960051 4.029117 0.692147 -34.156651 30.156578 -5.425148 0.766027 5.884058 23.870425 0.940161 -4.662246 52.258849 11.931544 9.377885 -13.365372 42.213904 9.312464 -15.260556 -3.111031 2.232530 
1.456145 0.331415 1.002268 -93.477414 -8.323172 67.679727 17.690601 1.772317 -62.264401 0.519505 22.532783 108.156394 -5.803701 -0.012984 3.514547 0.000000 -0.000000 0.000000 -6.015687 -8.724302 19.534456 -2.550863 9.212284 20.470732 -3.713251 -4.564272 -22.340945 0.000000 -0.000000 0.000000 -0.843928 19.007647 27.386426 -1.423253 2.552038 -7.687949 -2.638023 7.154465 2.100198 7.218213 -1.210273 -10.420070 -0.736070 -21.393405 20.363636 -17.908016 11.769104 -3.682148 -54.209895 6.971151 3.317750 0.906072 -33.849152 30.155425 -5.877561 0.994821 5.255309 24.074839 1.195563 -4.633995 51.459609 13.980210 8.906191 -14.323515 42.447268 8.211362 -15.649092 -3.220801 2.792978 
1.433990 0.328523 1.002659 -94.017160 -8.792637 67.707793 17.748802 2.304296 -64.557763 0.874698 23.386658 105.679943 -5.926209 -0.239089 3.235953 0.000000 -0.000000 0.000000 -7.177837 -8.846707 21.348692 -2.661577 10.191392 19.643745 -3.575653 -4.063037 -23.111081 0.000000 -0.000000 0.000000 -0.930410 19.619834 26.868746 -1.658276 2.336953 -7.668386 -2.914544 7.572728 2.129239 7.447130 -0.971114 -10.355050 -0.953707 -22.059018 21.021180 -17.708879 12.195325 -3.722624 -53.966478 7.878932 2.719115 1.326372 -33.156508 29.943674 -6.160728 0.996338 5.147547 24.368520 1.526755 -4.474830 51.016182 15.582955 8.363193 -15.118347 42.360399 7.224998 -16.183487 -3.318367 2.898490 
1.412722 0.326058 1.001854 -94.631319 -8.883339 68.165076 17.468841 2.687877 -65.271773 1.058240 23.740864 102.440221 -6.112915 -0.451876 2.656751 0.000000 -0.000000 0.000000 -7.846260 -8.895673 22.418265 -2.692096 10.813709 19.283723 -3.391368 -3.391617 -23.882993 0.000000 -0.000000 0.000000 -0.991753 19.978459 25.956534 -1.798706 2.275135 -7.756310 -3.110051 7.880680 2.050446 7.890536 -0.752290 -10.104202 -1.219409 -22.536729 21.632383 -17.598634 12.404225 -3.635498 -53.918620 8.544914 2.266726 1.769538 -32.214809 29.337610 -6.507515 1.063326 5.611564 24.841065 1.660517 -4.319142 50.867342 16.407656 7.939946 -15.853065 42.362612 6.150900 -16.262607 -3.051708 3.224985 
1.391998 0.324096 0.999843 -95.290059 -8.754584 69.003630 17.037811 2.900214 -64.494542 1.033432 23.998353 98.534612 -6.285203 -0.102995 2.593031 0.000000 -0.000000 0.000000 -8.057920 -8.674947 22.961876 -2.714793 11.347707 19.176372 -3.269114 -2.809589 -24.428644 0.000000 -0.000000 0.000000 -1.179242 20.107767 24.671213 -1.851833 2.435824 -7.962894 -3.185363 7.928003 2.034669 8.045463 -0.486653 -9.798809 -1.479388 -22.827846 22.109422 -17.623617 12.650110 -3.428205 -54.097989 8.876825 1.963132 2.331737 -31.282901 28.761371 -7.315208 1.206885 5.989067 25.441425 1.388671 -4.154065 51.001935 16.787098 7.810017 -16.101806 42.472372 6.004117 -15.841862 -2.779806 3.418254 
1.371600 0.322084 0.996782 -95.677258 -8.403481 70.057481 16.199930 2.615719 -62.374379 0.401020 24.037406 93.575323 -6.127551 0.378581 3.140519 0.000000 -0.000000 0.000000 -7.844277 -8.284283 23.225758 -2.738505 11.673725 19.144977 -3.354433 -2.408727 -24.836595 0.000000 -0.000000 0.000000 -1.357095 19.546614 23.205689 -1.839154 2.128885 -7.721580 -3.422072 8.056183 1.563869 8.190063 -0.013789 -9.551719 -1.434443 -22.676094 22.046960 -17.657315 13.145628 -3.676820 -54.283432 9.357566 1.735342 2.466398 -30.528932 28.394987 -8.108067 1.443960 6.212365 25.945491 1.095933 -3.887184 51.737965 17.056880 8.126385 -15.647898 42.216706 6.657183 -15.587001 -2.605196 3.811205 
1.351221 0.320051 0.992957 -95.885523 -7.796024 71.335441 14.924513 2.078797 -59.084804 -0.889280 23.506582 87.206010 -6.169413 0.769218 4.676266 0.000000 -0.000000 0.000000 -7.306013 -7.907993 23.247823 -2.666958 11.510611 19.147282 -3.459761 -2.162358 -25.022506 0.000000 -0.000000 0.000000 -1.563279 18.915720 21.297872 -1.676866 1.971696 -7.418135 -3.474974 7.937966 1.279017 8.452668 0.310326 -9.348155 -1.623381 -22.564368 21.907523 -17.674022 13.339897 -3.555904 -54.959587 9.221226 1.812639 2.875660 -29.624758 27.580279 -8.608079 1.666505 6.803500 26.360404 0.559757 -3.784355 52.611029 16.632895 8.671421 -14.741312 41.808465 7.834269 -15.401585 -2.420982 4.174005 
